<svg width="720" height="520" viewBox="0 0 720 520" fill="none" xmlns="http://www.w3.org/2000/svg">
  <rect width="720" height="520" rx="28" fill="#F8FAFC"/>
  <rect x="34" y="34" width="652" height="452" rx="24" fill="white" stroke="#CBD5E1"/>
  <rect x="62" y="62" width="596" height="76" rx="18" fill="#0F172A"/>
  <circle cx="94" cy="100" r="8" fill="#2DD4BF"/>
  <circle cx="120" cy="100" r="8" fill="#F59E0B"/>
  <circle cx="146" cy="100" r="8" fill="#EF4444"/>
  <rect x="178" y="89" width="190" height="22" rx="11" fill="#1E293B"/>
  <path d="M199 100H344" stroke="#94A3B8" stroke-width="4" stroke-linecap="round"/>
  <rect x="62" y="166" width="226" height="242" rx="20" fill="#ECFEFF" stroke="#99F6E4"/>
  <rect x="94" y="198" width="104" height="18" rx="9" fill="#0D9488"/>
  <rect x="94" y="234" width="150" height="12" rx="6" fill="#5EEAD4"/>
  <rect x="94" y="260" width="118" height="12" rx="6" fill="#99F6E4"/>
  <rect x="94" y="300" width="162" height="52" rx="14" fill="white" stroke="#99F6E4"/>
  <path d="M116 326H232" stroke="#0F766E" stroke-width="6" stroke-linecap="round"/>
  <circle cx="256" cy="326" r="7" fill="#14B8A6"/>
  <rect x="334" y="166" width="122" height="96" rx="20" fill="#F8FAFC" stroke="#CBD5E1"/>
  <path d="M370 214H420" stroke="#0F172A" stroke-width="8" stroke-linecap="round"/>
  <path d="M383 196L363 214L383 232" stroke="#0D9488" stroke-width="8" stroke-linecap="round" stroke-linejoin="round"/>
  <path d="M407 196L427 214L407 232" stroke="#0D9488" stroke-width="8" stroke-linecap="round" stroke-linejoin="round"/>
  <rect x="502" y="166" width="122" height="96" rx="20" fill="#F8FAFC" stroke="#CBD5E1"/>
  <path d="M540 204C540 195.163 547.163 188 556 188H570C578.837 188 586 195.163 586 204V226C586 234.837 578.837 242 570 242H556C547.163 242 540 234.837 540 226V204Z" fill="#CCFBF1" stroke="#0D9488" stroke-width="6"/>
  <path d="M552 214H574" stroke="#0F766E" stroke-width="6" stroke-linecap="round"/>
  <path d="M563 203V225" stroke="#0F766E" stroke-width="6" stroke-linecap="round"/>
  <rect x="334" y="312" width="290" height="96" rx="20" fill="#0F172A"/>
  <path d="M370 344H508" stroke="#5EEAD4" stroke-width="8" stroke-linecap="round"/>
  <path d="M370 374H568" stroke="#64748B" stroke-width="8" stroke-linecap="round"/>
  <circle cx="594" cy="374" r="8" fill="#2DD4BF"/>
  <path d="M288 286C316 286 316 214 334 214" stroke="#14B8A6" stroke-width="8" stroke-linecap="round"/>
  <path d="M456 214H502" stroke="#14B8A6" stroke-width="8" stroke-linecap="round"/>
  <path d="M563 262C563 286 514 286 514 312" stroke="#14B8A6" stroke-width="8" stroke-linecap="round"/>
  <path d="M456 360H334" stroke="#14B8A6" stroke-width="8" stroke-linecap="round"/>
  <circle cx="334" cy="214" r="10" fill="#0D9488" stroke="white" stroke-width="5"/>
  <circle cx="502" cy="214" r="10" fill="#0D9488" stroke="white" stroke-width="5"/>
  <circle cx="514" cy="312" r="10" fill="#0D9488" stroke="white" stroke-width="5"/>
  <circle cx="334" cy="360" r="10" fill="#0D9488" stroke="white" stroke-width="5"/>
  <text x="94" y="386" fill="#0F766E" font-family="Inter, Arial, sans-serif" font-size="20" font-weight="700">API key</text>
  <text x="356" y="286" fill="#475569" font-family="Inter, Arial, sans-serif" font-size="18" font-weight="700">request</text>
  <text x="522" y="286" fill="#475569" font-family="Inter, Arial, sans-serif" font-size="18" font-weight="700">analysis</text>
  <text x="356" y="438" fill="#475569" font-family="Inter, Arial, sans-serif" font-size="18" font-weight="700">structured result</text>
</svg>
